<?xml version="1.0" encoding="UTF-8"?>
<svg id="Calque_2" data-name="Calque 2" xmlns="http://www.w3.org/2000/svg" xmlns:xlink="http://www.w3.org/1999/xlink" viewBox="0 0 203.65 261.11">
  <defs>
    <style>
      .cls-1 {
        fill: #188bb7;
      }

      .cls-2 {
        fill: #cfcece;
      }

      .cls-3 {
        clip-path: url(#clippath);
      }

      .cls-4 {
        fill: none;
      }

      .cls-5 {
        fill: url(#Dégradé_sans_nom_215);
      }
    </style>
    <clipPath id="clippath">
      <rect class="cls-4" x="29.76" y="113.68" width="147.26" height="147.42"/>
    </clipPath>
    <linearGradient id="Dégradé_sans_nom_215" data-name="Dégradé sans nom 215" x1="82.36" y1="59.63" x2="203.65" y2="59.63" gradientUnits="userSpaceOnUse">
      <stop offset="0" stop-color="#c3ccd3"/>
      <stop offset=".13" stop-color="#c8cfd6"/>
      <stop offset=".62" stop-color="#d8dbdf"/>
      <stop offset="1" stop-color="#dedfe3"/>
    </linearGradient>
  </defs>
  <g id="Calque_1-2" data-name="Calque 1">
    <g id="grele_235" data-name="grele 235">
      <g class="cls-3">
        <g>
          <g>
            <polygon class="cls-1" points="38.39 133.6 29.76 128.62 29.76 118.66 38.39 113.68 47.01 118.66 47.01 128.62 38.39 133.6"/>
            <polygon class="cls-1" points="74.32 153.62 65.7 148.64 65.7 138.68 74.32 133.7 82.94 138.68 82.94 148.64 74.32 153.62"/>
          </g>
          <g>
            <polygon class="cls-1" points="101.57 133.6 92.94 128.62 92.94 118.66 101.57 113.68 110.19 118.66 110.19 128.62 101.57 133.6"/>
            <polygon class="cls-1" points="137.5 153.62 128.88 148.64 128.88 138.68 137.5 133.7 146.12 138.68 146.12 148.64 137.5 153.62"/>
          </g>
          <g>
            <polygon class="cls-1" points="164.75 133.6 156.12 128.62 156.12 118.66 164.75 113.68 173.37 118.66 173.37 128.62 164.75 133.6"/>
            <polygon class="cls-1" points="200.68 153.62 192.06 148.64 192.06 138.68 200.68 133.7 209.31 138.68 209.31 148.64 200.68 153.62"/>
          </g>
          <g>
            <polygon class="cls-1" points="38.39 183.53 29.76 178.55 29.76 168.59 38.39 163.62 47.01 168.59 47.01 178.55 38.39 183.53"/>
            <polygon class="cls-1" points="74.32 203.55 65.7 198.57 65.7 188.61 74.32 183.63 82.94 188.61 82.94 198.57 74.32 203.55"/>
          </g>
          <g>
            <polygon class="cls-1" points="101.57 183.53 92.94 178.55 92.94 168.59 101.57 163.62 110.19 168.59 110.19 178.55 101.57 183.53"/>
            <polygon class="cls-1" points="137.5 203.55 128.88 198.57 128.88 188.61 137.5 183.63 146.12 188.61 146.12 198.57 137.5 203.55"/>
          </g>
          <g>
            <polygon class="cls-1" points="164.75 183.53 156.12 178.55 156.12 168.59 164.75 163.62 173.37 168.59 173.37 178.55 164.75 183.53"/>
            <polygon class="cls-1" points="200.68 203.55 192.06 198.57 192.06 188.61 200.68 183.63 209.31 188.61 209.31 198.57 200.68 203.55"/>
          </g>
          <g>
            <polygon class="cls-1" points="38.39 233.46 29.76 228.48 29.76 218.53 38.39 213.55 47.01 218.53 47.01 228.48 38.39 233.46"/>
            <polygon class="cls-1" points="74.32 253.48 65.7 248.5 65.7 238.54 74.32 233.56 82.94 238.54 82.94 248.5 74.32 253.48"/>
          </g>
          <g>
            <polygon class="cls-1" points="101.57 233.46 92.94 228.48 92.94 218.53 101.57 213.55 110.19 218.53 110.19 228.48 101.57 233.46"/>
            <polygon class="cls-1" points="137.5 253.48 128.88 248.5 128.88 238.54 137.5 233.56 146.12 238.54 146.12 248.5 137.5 253.48"/>
          </g>
          <g>
            <polygon class="cls-1" points="164.75 233.46 156.12 228.48 156.12 218.53 164.75 213.55 173.37 218.53 173.37 228.48 164.75 233.46"/>
            <polygon class="cls-1" points="200.68 253.48 192.06 248.5 192.06 238.54 200.68 233.56 209.31 238.54 209.31 248.5 200.68 253.48"/>
          </g>
        </g>
      </g>
      <g id="nuageux">
        <path id="nuage" class="cls-5" d="m203.62,76.15c-.86,19.89-17.68,35.32-37.57,34.46-8.17-.35-15.58-3.4-21.42-8.23-6.92,7.34-16.88,11.75-27.77,11.28-19.89-.86-35.32-17.68-34.46-37.57.28-6.56,2.3-12.63,5.59-17.8-2.83-5.43-4.32-11.66-4.04-18.22.86-19.89,17.68-35.32,37.57-34.46,18.98.82,33.89,16.17,34.47,34.86,4.11-1.4,8.56-2.08,13.17-1.88,19.89.86,35.32,17.69,34.46,37.57Z"/>
        <path id="nuage-2" data-name="nuage" class="cls-2" d="m121.26,70.58c-.86,19.89-17.68,35.32-37.57,34.46-8.17-.35-15.58-3.4-21.42-8.23-6.92,7.34-16.88,11.75-27.77,11.28C14.6,107.22-.83,90.4.03,70.51c.28-6.56,2.3-12.63,5.59-17.8-2.83-5.43-4.32-11.66-4.04-18.22C2.45,14.6,19.27-.83,39.16.03c18.98.82,33.89,16.17,34.47,34.86,4.11-1.4,8.56-2.08,13.17-1.88,19.89.86,35.32,17.69,34.46,37.57Z"/>
      </g>
    </g>
  </g>
</svg>