<?xml version="1.0" encoding="UTF-8"?>
<svg id="Calque_2" data-name="Calque 2" xmlns="http://www.w3.org/2000/svg" xmlns:xlink="http://www.w3.org/1999/xlink" viewBox="0 0 203.65 253.95">
  <defs>
    <style>
      .cls-1 {
        fill: url(#Dégradé_sans_nom_30-5);
      }

      .cls-2 {
        fill: url(#Dégradé_sans_nom_30-4);
      }

      .cls-3 {
        stroke-width: 3px;
      }

      .cls-3, .cls-4 {
        fill: #fff;
        stroke: #188bb7;
        stroke-linecap: round;
        stroke-miterlimit: 10;
      }

      .cls-5 {
        fill: url(#Dégradé_sans_nom_30-3);
      }

      .cls-6 {
        fill: #cfcece;
      }

      .cls-7 {
        fill: url(#Dégradé_sans_nom_30-2);
      }

      .cls-8 {
        fill: url(#Dégradé_sans_nom_30-6);
      }

      .cls-9 {
        clip-path: url(#clippath);
      }

      .cls-10 {
        fill: none;
      }

      .cls-11 {
        fill: url(#Dégradé_sans_nom_215);
      }

      .cls-4 {
        stroke-width: 5px;
      }

      .cls-12 {
        fill: url(#Dégradé_sans_nom_40);
      }

      .cls-13 {
        fill: url(#Dégradé_sans_nom_30);
      }
    </style>
    <clipPath id="clippath">
      <rect class="cls-10" x="10.08" y="162.82" width="139.56" height="26.59" transform="translate(-112.55 195.44) rotate(-71.35)"/>
    </clipPath>
    <linearGradient id="Dégradé_sans_nom_40" data-name="Dégradé sans nom 40" x1="83.71" y1="-175.73" x2="145.72" y2="-175.73" gradientTransform="translate(-60.08 193.43) rotate(15.69)" gradientUnits="userSpaceOnUse">
      <stop offset="0" stop-color="#d3d323"/>
      <stop offset=".02" stop-color="#d2cf22"/>
      <stop offset=".32" stop-color="#d2a71b"/>
      <stop offset=".59" stop-color="#d28a16"/>
      <stop offset=".83" stop-color="#d27913"/>
      <stop offset="1" stop-color="#d27312"/>
    </linearGradient>
    <linearGradient id="Dégradé_sans_nom_30" data-name="Dégradé sans nom 30" x1="82.97" y1="-215.06" x2="99.25" y2="-215.06" gradientTransform="translate(-60.08 193.43) rotate(15.69)" gradientUnits="userSpaceOnUse">
      <stop offset="0" stop-color="#d3d323"/>
      <stop offset=".09" stop-color="#d2c420"/>
      <stop offset=".35" stop-color="#d2a11a"/>
      <stop offset=".6" stop-color="#d28715"/>
      <stop offset=".82" stop-color="#d27812"/>
      <stop offset="1" stop-color="#d27312"/>
    </linearGradient>
    <linearGradient id="Dégradé_sans_nom_30-2" data-name="Dégradé sans nom 30" x1="130.17" y1="-136.39" x2="146.45" y2="-136.39" xlink:href="#Dégradé_sans_nom_30"/>
    <linearGradient id="Dégradé_sans_nom_30-3" data-name="Dégradé sans nom 30" x1="57.73" y1="-174.96" x2="80.17" y2="-174.96" xlink:href="#Dégradé_sans_nom_30"/>
    <linearGradient id="Dégradé_sans_nom_30-4" data-name="Dégradé sans nom 30" x1="149.26" y1="-176.5" x2="171.69" y2="-176.5" xlink:href="#Dégradé_sans_nom_30"/>
    <linearGradient id="Dégradé_sans_nom_30-5" data-name="Dégradé sans nom 30" x1="128.33" y1="-216.22" x2="144.02" y2="-216.22" xlink:href="#Dégradé_sans_nom_30"/>
    <linearGradient id="Dégradé_sans_nom_30-6" data-name="Dégradé sans nom 30" x1="85.41" y1="-135.24" x2="101.1" y2="-135.24" xlink:href="#Dégradé_sans_nom_30"/>
    <linearGradient id="Dégradé_sans_nom_215" data-name="Dégradé sans nom 215" x1="82.36" y1="98.74" x2="203.65" y2="98.74" gradientUnits="userSpaceOnUse">
      <stop offset="0" stop-color="#c3ccd3"/>
      <stop offset=".13" stop-color="#c8cfd6"/>
      <stop offset=".62" stop-color="#d8dbdf"/>
      <stop offset="1" stop-color="#dedfe3"/>
    </linearGradient>
  </defs>
  <g id="Calque_1-2" data-name="Calque 1">
    <g id="Pluie_faible_verglaçante_13" data-name="Pluie faible verglaçante 13">
      <g class="cls-9">
        <g>
          <g>
            <line class="cls-4" x1="58.49" y1="98.5" x2="50.7" y2="121.59"/>
            <line class="cls-4" x1="72.82" y1="110.95" x2="65.03" y2="134.04"/>
          </g>
          <g>
            <line class="cls-4" x1="91.5" y1="109.64" x2="83.71" y2="132.73"/>
            <line class="cls-4" x1="105.84" y1="122.09" x2="98.04" y2="145.18"/>
          </g>
          <g>
            <line class="cls-4" x1="124.52" y1="120.79" x2="116.72" y2="143.88"/>
            <line class="cls-4" x1="138.85" y1="133.24" x2="131.05" y2="156.33"/>
          </g>
          <g>
            <line class="cls-4" x1="42.86" y1="144.8" x2="35.07" y2="167.89"/>
            <line class="cls-4" x1="57.19" y1="157.25" x2="49.4" y2="180.34"/>
          </g>
          <g>
            <line class="cls-4" x1="75.87" y1="155.94" x2="68.08" y2="179.03"/>
            <line class="cls-4" x1="90.21" y1="168.39" x2="82.41" y2="191.48"/>
          </g>
          <g>
            <line class="cls-4" x1="108.89" y1="167.08" x2="101.09" y2="190.18"/>
            <line class="cls-4" x1="123.22" y1="179.54" x2="115.42" y2="202.63"/>
          </g>
          <g>
            <line class="cls-4" x1="60.24" y1="202.24" x2="52.45" y2="225.33"/>
            <line class="cls-4" x1="74.58" y1="214.69" x2="66.78" y2="237.78"/>
          </g>
          <g>
            <line class="cls-4" x1="93.26" y1="213.38" x2="85.46" y2="236.47"/>
            <line class="cls-4" x1="107.59" y1="225.83" x2="99.79" y2="248.92"/>
          </g>
          <line class="cls-4" x1="44.61" y1="248.54" x2="36.82" y2="271.63"/>
        </g>
      </g>
      <g id="nuageux">
        <g id="soleil">
          <circle class="cls-12" cx="97.89" cy="55.28" r="31"/>
          <path class="cls-13" d="m88.77,21.87h0c-2.59.71-5.26-.82-5.97-3.41l-3.36-12.29c-.71-2.6.82-5.28,3.4-5.99h0c2.59-.71,5.26.82,5.97,3.41l3.36,12.29c.71,2.6-.82,5.28-3.4,5.99Z"/>
          <path class="cls-7" d="m112.93,110.38h0c-2.59.71-5.26-.82-5.97-3.41l-3.36-12.29c-.71-2.6.82-5.28,3.4-5.99h0c2.59-.71,5.26.82,5.97,3.41l3.36,12.29c.71,2.6-.82,5.28-3.4,5.99Z"/>
          <path class="cls-5" d="m64.47,46.49h0c-.68,2.6-3.34,4.16-5.93,3.48l-12.3-3.23c-2.6-.68-4.15-3.35-3.47-5.95h0c.68-2.6,3.34-4.16,5.93-3.48l12.3,3.23c2.6.68,4.15,3.35,3.47,5.95Z"/>
          <path class="cls-2" d="m153,69.76h0c-.68,2.6-3.34,4.16-5.93,3.48l-12.3-3.23c-2.6-.68-4.15-3.35-3.47-5.95h0c.68-2.6,3.34-4.16,5.93-3.48l12.3,3.23c2.6.68,4.15,3.35,3.47,5.95Z"/>
          <path class="cls-1" d="m121.75,30.23h0c-1.94-1.86-2.01-4.94-.16-6.89l8.78-9.22c1.85-1.95,4.93-2.02,6.87-.16h0c1.94,1.86,2.01,4.94.16,6.89l-8.78,9.22c-1.85,1.95-4.93,2.02-6.87.16Z"/>
          <path class="cls-8" d="m58.53,96.58h0c-1.94-1.86-2.01-4.94-.16-6.89l8.78-9.22c1.85-1.95,4.93-2.02,6.87-.16h0c1.94,1.86,2.01,4.94.16,6.89l-8.78,9.22c-1.85,1.95-4.93,2.02-6.87.16Z"/>
        </g>
        <path id="nuage" class="cls-11" d="m203.62,115.26c-.86,19.89-17.68,35.32-37.57,34.46-8.17-.35-15.58-3.4-21.42-8.23-6.92,7.34-16.88,11.75-27.77,11.28-19.89-.86-35.32-17.68-34.46-37.57.28-6.56,2.3-12.63,5.59-17.8-2.83-5.43-4.32-11.66-4.04-18.22.86-19.89,17.68-35.32,37.57-34.46,18.98.82,33.89,16.17,34.47,34.86,4.11-1.4,8.56-2.08,13.17-1.88,19.89.86,35.32,17.69,34.46,37.57Z"/>
        <path id="nuage-2" data-name="nuage" class="cls-6" d="m121.26,109.69c-.86,19.89-17.68,35.32-37.57,34.46-8.17-.35-15.58-3.4-21.42-8.23-6.92,7.34-16.88,11.75-27.77,11.28C14.6,146.34-.83,129.52.03,109.62c.28-6.56,2.3-12.63,5.59-17.8-2.83-5.43-4.32-11.66-4.04-18.22.86-19.89,17.68-35.32,37.57-34.46,18.98.82,33.89,16.17,34.47,34.86,4.11-1.4,8.56-2.08,13.17-1.88,19.89.86,35.32,17.69,34.46,37.57Z"/>
      </g>
      <g>
        <line class="cls-3" x1="79.85" y1="196.69" x2="79.85" y2="211.26"/>
        <line class="cls-3" x1="73.55" y1="207.62" x2="86.16" y2="200.33"/>
        <line class="cls-3" x1="86.16" y1="207.62" x2="73.55" y2="200.33"/>
      </g>
      <g>
        <line class="cls-3" x1="64.6" y1="183.81" x2="64.6" y2="198.39"/>
        <line class="cls-3" x1="58.29" y1="194.74" x2="70.91" y2="187.46"/>
        <line class="cls-3" x1="70.91" y1="194.74" x2="58.29" y2="187.46"/>
      </g>
    </g>
  </g>
</svg>