<?xml version="1.0" encoding="UTF-8"?>
<svg id="Calque_2" data-name="Calque 2" xmlns="http://www.w3.org/2000/svg" xmlns:xlink="http://www.w3.org/1999/xlink" viewBox="0 0 141.88 124.29">
  <defs>
    <style>
      .cls-1 {
        fill: url(#Dégradé_sans_nom_30-5);
      }

      .cls-2 {
        fill: url(#Dégradé_sans_nom_30-4);
      }

      .cls-3 {
        fill: url(#Dégradé_sans_nom_30-3);
      }

      .cls-4 {
        fill: url(#Dégradé_sans_nom_30-2);
      }

      .cls-5 {
        fill: url(#Dégradé_sans_nom_30-6);
      }

      .cls-6 {
        fill: url(#Dégradé_sans_nom_215);
      }

      .cls-7 {
        fill: url(#Dégradé_sans_nom_40);
      }

      .cls-8 {
        fill: url(#Dégradé_sans_nom_30);
      }
    </style>
    <linearGradient id="Dégradé_sans_nom_40" data-name="Dégradé sans nom 40" x1="44.79" y1="5.89" x2="106.8" y2="5.89" gradientTransform="translate(15.23 29.1) rotate(15.69)" gradientUnits="userSpaceOnUse">
      <stop offset="0" stop-color="#d3d323"/>
      <stop offset=".02" stop-color="#d2cf22"/>
      <stop offset=".32" stop-color="#d2a71b"/>
      <stop offset=".59" stop-color="#d28a16"/>
      <stop offset=".83" stop-color="#d27913"/>
      <stop offset="1" stop-color="#d27312"/>
    </linearGradient>
    <linearGradient id="Dégradé_sans_nom_30" data-name="Dégradé sans nom 30" x1="44.06" y1="-33.45" x2="60.34" y2="-33.45" gradientTransform="translate(15.23 29.1) rotate(15.69)" gradientUnits="userSpaceOnUse">
      <stop offset="0" stop-color="#d3d323"/>
      <stop offset=".09" stop-color="#d2c420"/>
      <stop offset=".35" stop-color="#d2a11a"/>
      <stop offset=".6" stop-color="#d28715"/>
      <stop offset=".82" stop-color="#d27812"/>
      <stop offset="1" stop-color="#d27312"/>
    </linearGradient>
    <linearGradient id="Dégradé_sans_nom_30-2" data-name="Dégradé sans nom 30" x1="91.26" y1="45.23" x2="107.54" y2="45.23" xlink:href="#Dégradé_sans_nom_30"/>
    <linearGradient id="Dégradé_sans_nom_30-3" data-name="Dégradé sans nom 30" x1="18.82" y1="6.66" x2="41.25" y2="6.66" xlink:href="#Dégradé_sans_nom_30"/>
    <linearGradient id="Dégradé_sans_nom_30-4" data-name="Dégradé sans nom 30" x1="110.34" y1="5.12" x2="132.78" y2="5.12" xlink:href="#Dégradé_sans_nom_30"/>
    <linearGradient id="Dégradé_sans_nom_30-5" data-name="Dégradé sans nom 30" x1="89.42" y1="-34.6" x2="105.1" y2="-34.6" xlink:href="#Dégradé_sans_nom_30"/>
    <linearGradient id="Dégradé_sans_nom_30-6" data-name="Dégradé sans nom 30" x1="46.5" y1="46.38" x2="62.18" y2="46.38" xlink:href="#Dégradé_sans_nom_30"/>
    <linearGradient id="Dégradé_sans_nom_215" data-name="Dégradé sans nom 215" x1="0" y1="70.23" x2="121.29" y2="70.23" gradientUnits="userSpaceOnUse">
      <stop offset="0" stop-color="#c3ccd3"/>
      <stop offset=".13" stop-color="#c8cfd6"/>
      <stop offset=".62" stop-color="#d8dbdf"/>
      <stop offset="1" stop-color="#dedfe3"/>
    </linearGradient>
  </defs>
  <g id="Calque_1-2" data-name="Calque 1">
    <g id="peu_nuageux-1" data-name="peu nuageux-1">
      <g id="soleil">
        <circle class="cls-7" cx="86.61" cy="55.28" r="31"/>
        <path class="cls-8" d="m77.49,21.87h0c-2.59.71-5.26-.82-5.97-3.41l-3.36-12.29c-.71-2.6.82-5.28,3.4-5.99h0c2.59-.71,5.26.82,5.97,3.41l3.36,12.29c.71,2.6-.82,5.28-3.4,5.99Z"/>
        <path class="cls-4" d="m101.65,110.38h0c-2.59.71-5.26-.82-5.97-3.41l-3.36-12.29c-.71-2.6.82-5.28,3.4-5.99h0c2.59-.71,5.26.82,5.97,3.41l3.36,12.29c.71,2.6-.82,5.28-3.4,5.99Z"/>
        <path class="cls-3" d="m53.19,46.49h0c-.68,2.6-3.34,4.16-5.93,3.48l-12.3-3.23c-2.6-.68-4.15-3.35-3.47-5.95h0c.68-2.6,3.34-4.16,5.93-3.48l12.3,3.23c2.6.68,4.15,3.35,3.47,5.95Z"/>
        <path class="cls-2" d="m141.72,69.76h0c-.68,2.6-3.34,4.16-5.93,3.48l-12.3-3.23c-2.6-.68-4.15-3.35-3.47-5.95h0c.68-2.6,3.34-4.16,5.93-3.48l12.3,3.23c2.6.68,4.15,3.35,3.47,5.95Z"/>
        <path class="cls-1" d="m110.47,30.23h0c-1.94-1.86-2.01-4.94-.16-6.89l8.78-9.22c1.85-1.95,4.93-2.02,6.87-.16h0c1.94,1.86,2.01,4.94.16,6.89l-8.78,9.22c-1.85,1.95-4.93,2.02-6.87.16Z"/>
        <path class="cls-5" d="m47.25,96.58h0c-1.94-1.86-2.01-4.94-.16-6.89l8.78-9.22c1.85-1.95,4.93-2.02,6.87-.16h0c1.94,1.86,2.01,4.94.16,6.89l-8.78,9.22c-1.85,1.95-4.93,2.02-6.87.16Z"/>
      </g>
      <path id="nuage" class="cls-6" d="m121.26,86.75c-.86,19.89-17.68,35.32-37.57,34.46-8.17-.35-15.58-3.4-21.42-8.23-6.92,7.34-16.88,11.75-27.77,11.28C14.6,123.39-.83,106.57.03,86.68c.28-6.56,2.3-12.63,5.59-17.8-2.83-5.43-4.32-11.66-4.04-18.22C2.45,30.77,19.27,15.34,39.16,16.2c18.98.82,33.89,16.17,34.47,34.86,4.11-1.4,8.56-2.08,13.17-1.88,19.89.86,35.32,17.69,34.46,37.57Z"/>
    </g>
  </g>
</svg>