<?xml version="1.0" encoding="UTF-8"?>
<svg id="Calque_2" data-name="Calque 2" xmlns="http://www.w3.org/2000/svg" xmlns:xlink="http://www.w3.org/1999/xlink" viewBox="0 0 203.65 273.16">
  <defs>
    <style>
      .cls-1 {
        fill: url(#Dégradé_sans_nom_30-5);
      }

      .cls-2 {
        fill: url(#Dégradé_sans_nom_30-4);
      }

      .cls-3 {
        fill: url(#Dégradé_sans_nom_30-3);
      }

      .cls-4 {
        fill: #cfcece;
      }

      .cls-5 {
        fill: url(#Dégradé_sans_nom_30-2);
      }

      .cls-6 {
        fill: url(#Dégradé_sans_nom_30-6);
      }

      .cls-7 {
        clip-path: url(#clippath);
      }

      .cls-8 {
        fill: none;
      }

      .cls-9 {
        fill: url(#Dégradé_sans_nom_215);
      }

      .cls-10 {
        fill: #fff;
        stroke: #188bb7;
        stroke-linecap: round;
        stroke-miterlimit: 10;
        stroke-width: 5px;
      }

      .cls-11 {
        fill: url(#Dégradé_sans_nom_40);
      }

      .cls-12 {
        fill: url(#Dégradé_sans_nom_30);
      }
    </style>
    <linearGradient id="Dégradé_sans_nom_40" data-name="Dégradé sans nom 40" x1="98.7" y1="-26.39" x2="160.71" y2="-26.39" gradientTransform="translate(-34.12 45.6) rotate(15.69)" gradientUnits="userSpaceOnUse">
      <stop offset="0" stop-color="#d3d323"/>
      <stop offset=".02" stop-color="#d2cf22"/>
      <stop offset=".32" stop-color="#d2a71b"/>
      <stop offset=".59" stop-color="#d28a16"/>
      <stop offset=".83" stop-color="#d27913"/>
      <stop offset="1" stop-color="#d27312"/>
    </linearGradient>
    <linearGradient id="Dégradé_sans_nom_30" data-name="Dégradé sans nom 30" x1="97.97" y1="-65.73" x2="114.25" y2="-65.73" gradientTransform="translate(-34.12 45.6) rotate(15.69)" gradientUnits="userSpaceOnUse">
      <stop offset="0" stop-color="#d3d323"/>
      <stop offset=".09" stop-color="#d2c420"/>
      <stop offset=".35" stop-color="#d2a11a"/>
      <stop offset=".6" stop-color="#d28715"/>
      <stop offset=".82" stop-color="#d27812"/>
      <stop offset="1" stop-color="#d27312"/>
    </linearGradient>
    <linearGradient id="Dégradé_sans_nom_30-2" data-name="Dégradé sans nom 30" x1="145.17" y1="12.95" x2="161.45" y2="12.95" xlink:href="#Dégradé_sans_nom_30"/>
    <linearGradient id="Dégradé_sans_nom_30-3" data-name="Dégradé sans nom 30" x1="72.73" y1="-25.62" x2="95.16" y2="-25.62" xlink:href="#Dégradé_sans_nom_30"/>
    <linearGradient id="Dégradé_sans_nom_30-4" data-name="Dégradé sans nom 30" x1="164.25" y1="-27.16" x2="186.69" y2="-27.16" xlink:href="#Dégradé_sans_nom_30"/>
    <linearGradient id="Dégradé_sans_nom_30-5" data-name="Dégradé sans nom 30" x1="143.33" y1="-66.88" x2="159.01" y2="-66.88" xlink:href="#Dégradé_sans_nom_30"/>
    <linearGradient id="Dégradé_sans_nom_30-6" data-name="Dégradé sans nom 30" x1="100.41" y1="14.1" x2="116.09" y2="14.1" xlink:href="#Dégradé_sans_nom_30"/>
    <linearGradient id="Dégradé_sans_nom_215" data-name="Dégradé sans nom 215" x1="82.36" y1="98.74" x2="203.65" y2="98.74" gradientUnits="userSpaceOnUse">
      <stop offset="0" stop-color="#c3ccd3"/>
      <stop offset=".13" stop-color="#c8cfd6"/>
      <stop offset=".62" stop-color="#d8dbdf"/>
      <stop offset="1" stop-color="#dedfe3"/>
    </linearGradient>
    <clipPath id="clippath">
      <rect class="cls-8" x="20.29" y="182.69" width="117.95" height="37.11" transform="translate(-137.02 198.94) rotate(-67.89)"/>
    </clipPath>
  </defs>
  <g id="Calque_1-2" data-name="Calque 1">
    <g id="pluie_modérée_11" data-name="pluie modérée 11">
      <g id="nuageux">
        <g id="soleil">
          <circle class="cls-11" cx="97.89" cy="55.28" r="31"/>
          <path class="cls-12" d="m88.77,21.87h0c-2.59.71-5.26-.82-5.97-3.41l-3.36-12.29c-.71-2.6.82-5.28,3.4-5.99h0c2.59-.71,5.26.82,5.97,3.41l3.36,12.29c.71,2.6-.82,5.28-3.4,5.99Z"/>
          <path class="cls-5" d="m112.93,110.38h0c-2.59.71-5.26-.82-5.97-3.41l-3.36-12.29c-.71-2.6.82-5.28,3.4-5.99h0c2.59-.71,5.26.82,5.97,3.41l3.36,12.29c.71,2.6-.82,5.28-3.4,5.99Z"/>
          <path class="cls-3" d="m64.47,46.49h0c-.68,2.6-3.34,4.16-5.93,3.48l-12.3-3.23c-2.6-.68-4.15-3.35-3.47-5.95h0c.68-2.6,3.34-4.16,5.93-3.48l12.3,3.23c2.6.68,4.15,3.35,3.47,5.95Z"/>
          <path class="cls-2" d="m153,69.76h0c-.68,2.6-3.34,4.16-5.93,3.48l-12.3-3.23c-2.6-.68-4.15-3.35-3.47-5.95h0c.68-2.6,3.34-4.16,5.93-3.48l12.3,3.23c2.6.68,4.15,3.35,3.47,5.95Z"/>
          <path class="cls-1" d="m121.75,30.23h0c-1.94-1.86-2.01-4.94-.16-6.89l8.78-9.22c1.85-1.95,4.93-2.02,6.87-.16h0c1.94,1.86,2.01,4.94.16,6.89l-8.78,9.22c-1.85,1.95-4.93,2.02-6.87.16Z"/>
          <path class="cls-6" d="m58.53,96.58h0c-1.94-1.86-2.01-4.94-.16-6.89l8.78-9.22c1.85-1.95,4.93-2.02,6.87-.16h0c1.94,1.86,2.01,4.94.16,6.89l-8.78,9.22c-1.85,1.95-4.93,2.02-6.87.16Z"/>
        </g>
        <path id="nuage" class="cls-9" d="m203.62,115.26c-.86,19.89-17.68,35.32-37.57,34.46-8.17-.35-15.58-3.4-21.42-8.23-6.92,7.34-16.88,11.75-27.77,11.28-19.89-.86-35.32-17.68-34.46-37.57.28-6.56,2.3-12.63,5.59-17.8-2.83-5.43-4.32-11.66-4.04-18.22.86-19.89,17.68-35.32,37.57-34.46,18.98.82,33.89,16.17,34.47,34.86,4.11-1.4,8.56-2.08,13.17-1.88,19.89.86,35.32,17.69,34.46,37.57Z"/>
        <path id="nuage-2" data-name="nuage" class="cls-4" d="m121.26,109.69c-.86,19.89-17.68,35.32-37.57,34.46-8.17-.35-15.58-3.4-21.42-8.23-6.92,7.34-16.88,11.75-27.77,11.28C14.6,146.34-.83,129.52.03,109.62c.28-6.56,2.3-12.63,5.59-17.8-2.83-5.43-4.32-11.66-4.04-18.22.86-19.89,17.68-35.32,37.57-34.46,18.98.82,33.89,16.17,34.47,34.86,4.11-1.4,8.56-2.08,13.17-1.88,19.89.86,35.32,17.69,34.46,37.57Z"/>
      </g>
      <g class="cls-7">
        <g>
          <g>
            <line class="cls-10" x1="127.7" y1="116.42" x2="120.32" y2="134.6"/>
            <line class="cls-10" x1="138.62" y1="127.12" x2="131.23" y2="145.3"/>
          </g>
          <g>
            <line class="cls-10" x1="58.74" y1="131.92" x2="51.36" y2="150.1"/>
            <line class="cls-10" x1="69.66" y1="142.63" x2="62.27" y2="160.8"/>
          </g>
          <g>
            <line class="cls-10" x1="85.64" y1="142.85" x2="78.25" y2="161.03"/>
            <line class="cls-10" x1="96.55" y1="153.55" x2="89.16" y2="171.73"/>
          </g>
          <g>
            <line class="cls-10" x1="112.53" y1="153.78" x2="105.14" y2="171.95"/>
            <line class="cls-10" x1="123.44" y1="164.48" x2="116.06" y2="182.66"/>
          </g>
          <g>
            <line class="cls-10" x1="43.57" y1="169.28" x2="36.18" y2="187.46"/>
            <line class="cls-10" x1="54.48" y1="179.98" x2="47.09" y2="198.16"/>
          </g>
          <g>
            <line class="cls-10" x1="70.46" y1="180.2" x2="63.07" y2="198.38"/>
            <line class="cls-10" x1="81.37" y1="190.9" x2="73.99" y2="209.08"/>
          </g>
          <g>
            <line class="cls-10" x1="97.35" y1="191.13" x2="89.97" y2="209.31"/>
            <line class="cls-10" x1="108.27" y1="201.83" x2="100.88" y2="220.01"/>
          </g>
          <g>
            <line class="cls-10" x1="124.25" y1="202.05" x2="116.86" y2="220.23"/>
            <line class="cls-10" x1="135.16" y1="212.76" x2="127.77" y2="230.94"/>
          </g>
          <g>
            <line class="cls-10" x1="28.39" y1="206.63" x2="21" y2="224.81"/>
            <line class="cls-10" x1="39.3" y1="217.33" x2="31.92" y2="235.51"/>
          </g>
          <g>
            <line class="cls-10" x1="55.28" y1="217.56" x2="47.9" y2="235.74"/>
            <line class="cls-10" x1="66.2" y1="228.26" x2="58.81" y2="246.44"/>
          </g>
          <g>
            <line class="cls-10" x1="82.18" y1="228.48" x2="74.79" y2="246.66"/>
            <line class="cls-10" x1="93.09" y1="239.18" x2="85.71" y2="257.36"/>
          </g>
          <g>
            <line class="cls-10" x1="109.07" y1="239.41" x2="101.69" y2="257.59"/>
            <line class="cls-10" x1="119.98" y1="250.11" x2="112.6" y2="268.29"/>
          </g>
          <g>
            <line class="cls-10" x1="40.11" y1="254.91" x2="32.72" y2="273.09"/>
            <line class="cls-10" x1="51.02" y1="265.61" x2="43.64" y2="283.79"/>
          </g>
        </g>
      </g>
    </g>
  </g>
</svg>