<?xml version="1.0" encoding="UTF-8"?>
<svg id="Calque_2" data-name="Calque 2" xmlns="http://www.w3.org/2000/svg" xmlns:xlink="http://www.w3.org/1999/xlink" viewBox="0 0 221.54 240.53">
  <defs>
    <style>
      .cls-1, .cls-2 {
        fill: #f3e600;
      }

      .cls-2 {
        opacity: .59;
      }

      .cls-3 {
        fill: #cfcece;
      }

      .cls-4 {
        clip-path: url(#clippath);
      }

      .cls-5 {
        fill: none;
      }

      .cls-6 {
        fill: url(#Dégradé_sans_nom_215);
      }

      .cls-7 {
        fill: #fff;
        stroke: #188bb7;
        stroke-linecap: round;
        stroke-miterlimit: 10;
        stroke-width: 5px;
      }
    </style>
    <clipPath id="clippath">
      <rect class="cls-5" x="36.04" y="122.89" width="117.66" height="69.2" transform="translate(-86.79 185.85) rotate(-67.81)"/>
    </clipPath>
    <linearGradient id="Dégradé_sans_nom_215" data-name="Dégradé sans nom 215" x1="100.25" y1="59.63" x2="221.54" y2="59.63" gradientUnits="userSpaceOnUse">
      <stop offset="0" stop-color="#c3ccd3"/>
      <stop offset=".13" stop-color="#c8cfd6"/>
      <stop offset=".62" stop-color="#d8dbdf"/>
      <stop offset="1" stop-color="#dedfe3"/>
    </linearGradient>
  </defs>
  <g id="Calque_1-2" data-name="Calque 1">
    <g id="orage_fort_102" data-name="orage fort 102">
      <polygon class="cls-1" points="18.43 83.86 88.88 83.86 35.87 121.98 52.18 161.46 0 229.43 22.61 161.46 4.99 110.97 18.43 83.86"/>
      <polygon class="cls-1" points="141.64 102.63 200.75 102.63 156.27 134.62 169.95 167.74 126.18 224.76 145.14 167.74 130.37 125.38 141.64 102.63"/>
      <polygon class="cls-2" points="96.97 84.71 155.23 84.71 111.39 116.23 124.88 148.87 81.73 205.07 100.43 148.87 85.86 107.13 96.97 84.71"/>
      <g id="nuageux">
        <g class="cls-4">
          <g>
            <g>
              <line class="cls-7" x1="128.93" y1="66.58" x2="121.43" y2="84.95"/>
              <line class="cls-7" x1="139.95" y1="77.41" x2="132.45" y2="95.79"/>
            </g>
            <g>
              <line class="cls-7" x1="156.05" y1="77.64" x2="148.56" y2="96.01"/>
              <line class="cls-7" x1="167.07" y1="88.48" x2="159.58" y2="106.85"/>
            </g>
            <g>
              <line class="cls-7" x1="59.29" y1="82.14" x2="51.8" y2="100.52"/>
              <line class="cls-7" x1="70.31" y1="92.98" x2="62.82" y2="111.35"/>
            </g>
            <g>
              <line class="cls-7" x1="86.42" y1="93.21" x2="78.93" y2="111.58"/>
              <line class="cls-7" x1="97.44" y1="104.05" x2="89.95" y2="122.42"/>
            </g>
            <g>
              <line class="cls-7" x1="113.55" y1="104.27" x2="106.05" y2="122.65"/>
              <line class="cls-7" x1="124.57" y1="115.11" x2="117.07" y2="133.48"/>
            </g>
            <g>
              <line class="cls-7" x1="140.68" y1="115.34" x2="133.18" y2="133.71"/>
              <line class="cls-7" x1="151.7" y1="126.18" x2="144.2" y2="144.55"/>
            </g>
            <g>
              <line class="cls-7" x1="43.91" y1="119.84" x2="36.42" y2="138.21"/>
              <line class="cls-7" x1="54.93" y1="130.68" x2="47.44" y2="149.05"/>
            </g>
            <g>
              <line class="cls-7" x1="71.04" y1="130.91" x2="63.55" y2="149.28"/>
              <line class="cls-7" x1="82.06" y1="141.75" x2="74.57" y2="160.12"/>
            </g>
            <g>
              <line class="cls-7" x1="98.17" y1="141.97" x2="90.68" y2="160.35"/>
              <line class="cls-7" x1="109.19" y1="152.81" x2="101.7" y2="171.18"/>
            </g>
            <g>
              <line class="cls-7" x1="125.3" y1="153.04" x2="117.8" y2="171.41"/>
              <line class="cls-7" x1="136.32" y1="163.88" x2="128.82" y2="182.25"/>
            </g>
            <g>
              <line class="cls-7" x1="152.43" y1="164.1" x2="144.93" y2="182.48"/>
              <line class="cls-7" x1="163.45" y1="174.94" x2="155.95" y2="193.32"/>
            </g>
            <g>
              <line class="cls-7" x1="28.54" y1="157.54" x2="21.04" y2="175.91"/>
              <line class="cls-7" x1="39.56" y1="168.38" x2="32.06" y2="186.75"/>
            </g>
            <g>
              <line class="cls-7" x1="55.66" y1="168.61" x2="48.17" y2="186.98"/>
              <line class="cls-7" x1="66.68" y1="179.44" x2="59.19" y2="197.82"/>
            </g>
            <g>
              <line class="cls-7" x1="82.79" y1="179.67" x2="75.3" y2="198.05"/>
              <line class="cls-7" x1="93.81" y1="190.51" x2="86.32" y2="208.88"/>
            </g>
            <g>
              <line class="cls-7" x1="109.92" y1="190.74" x2="102.42" y2="209.11"/>
              <line class="cls-7" x1="120.94" y1="201.58" x2="113.45" y2="219.95"/>
            </g>
            <g>
              <line class="cls-7" x1="137.05" y1="201.8" x2="129.55" y2="220.18"/>
              <line class="cls-7" x1="148.07" y1="212.64" x2="140.57" y2="231.01"/>
            </g>
            <g>
              <line class="cls-7" x1="40.29" y1="206.31" x2="32.79" y2="224.68"/>
              <line class="cls-7" x1="51.31" y1="217.14" x2="43.81" y2="235.52"/>
            </g>
            <g>
              <line class="cls-7" x1="67.41" y1="217.37" x2="59.92" y2="235.74"/>
              <line class="cls-7" x1="78.43" y1="228.21" x2="70.94" y2="246.58"/>
            </g>
          </g>
        </g>
        <path id="nuage" class="cls-6" d="m221.51,76.15c-.86,19.89-17.68,35.32-37.57,34.46-8.17-.35-15.58-3.4-21.42-8.23-6.92,7.34-16.88,11.75-27.77,11.28-19.89-.86-35.32-17.68-34.46-37.57.28-6.56,2.3-12.63,5.59-17.8-2.83-5.43-4.32-11.66-4.04-18.22.86-19.89,17.68-35.32,37.57-34.46s33.89,16.17,34.47,34.86c4.11-1.4,8.56-2.08,13.17-1.88,19.89.86,35.32,17.69,34.46,37.57Z"/>
        <path id="nuage-2" data-name="nuage" class="cls-3" d="m139.15,70.58c-.86,19.89-17.68,35.32-37.57,34.46-8.17-.35-15.58-3.4-21.42-8.23-6.92,7.34-16.88,11.75-27.77,11.28-19.89-.86-35.32-17.68-34.46-37.57.28-6.56,2.3-12.63,5.59-17.8-2.83-5.43-4.32-11.66-4.04-18.22C20.34,14.6,37.16-.83,57.05.03c18.98.82,33.89,16.17,34.47,34.86,4.11-1.4,8.56-2.08,13.17-1.88,19.89.86,35.32,17.69,34.46,37.57Z"/>
      </g>
    </g>
  </g>
</svg>