<?xml version="1.0" encoding="UTF-8"?>
<svg id="Calque_2" data-name="Calque 2" xmlns="http://www.w3.org/2000/svg" xmlns:xlink="http://www.w3.org/1999/xlink" viewBox="0 0 110.55 110.55">
  <defs>
    <style>
      .cls-1 {
        fill: url(#Dégradé_sans_nom_30-5);
      }

      .cls-2 {
        fill: url(#Dégradé_sans_nom_30-4);
      }

      .cls-3 {
        fill: url(#Dégradé_sans_nom_30-3);
      }

      .cls-4 {
        fill: url(#Dégradé_sans_nom_30-2);
      }

      .cls-5 {
        fill: url(#Dégradé_sans_nom_30-6);
      }

      .cls-6 {
        fill: url(#Dégradé_sans_nom_40);
      }

      .cls-7 {
        fill: url(#Dégradé_sans_nom_30);
      }
    </style>
    <linearGradient id="Dégradé_sans_nom_40" data-name="Dégradé sans nom 40" x1="22.8" y1="59.91" x2="84.81" y2="59.91" gradientTransform="translate(19.68 -16.95) rotate(15.69)" gradientUnits="userSpaceOnUse">
      <stop offset="0" stop-color="#d3d323"/>
      <stop offset=".02" stop-color="#d2cf22"/>
      <stop offset=".32" stop-color="#d2a71b"/>
      <stop offset=".59" stop-color="#d28a16"/>
      <stop offset=".83" stop-color="#d27913"/>
      <stop offset="1" stop-color="#d27312"/>
    </linearGradient>
    <linearGradient id="Dégradé_sans_nom_30" data-name="Dégradé sans nom 30" x1="22.06" y1="20.57" x2="38.34" y2="20.57" gradientTransform="translate(19.68 -16.95) rotate(15.69)" gradientUnits="userSpaceOnUse">
      <stop offset="0" stop-color="#d3d323"/>
      <stop offset=".09" stop-color="#d2c420"/>
      <stop offset=".35" stop-color="#d2a11a"/>
      <stop offset=".6" stop-color="#d28715"/>
      <stop offset=".82" stop-color="#d27812"/>
      <stop offset="1" stop-color="#d27312"/>
    </linearGradient>
    <linearGradient id="Dégradé_sans_nom_30-2" data-name="Dégradé sans nom 30" x1="69.26" y1="99.25" x2="85.54" y2="99.25" xlink:href="#Dégradé_sans_nom_30"/>
    <linearGradient id="Dégradé_sans_nom_30-3" data-name="Dégradé sans nom 30" x1="-3.18" y1="60.68" x2="19.26" y2="60.68" xlink:href="#Dégradé_sans_nom_30"/>
    <linearGradient id="Dégradé_sans_nom_30-4" data-name="Dégradé sans nom 30" x1="88.35" y1="59.14" x2="110.78" y2="59.14" xlink:href="#Dégradé_sans_nom_30"/>
    <linearGradient id="Dégradé_sans_nom_30-5" data-name="Dégradé sans nom 30" x1="67.42" y1="19.42" x2="83.11" y2="19.42" xlink:href="#Dégradé_sans_nom_30"/>
    <linearGradient id="Dégradé_sans_nom_30-6" data-name="Dégradé sans nom 30" x1="24.5" y1="100.4" x2="40.19" y2="100.4" xlink:href="#Dégradé_sans_nom_30"/>
  </defs>
  <g id="Calque_1-2" data-name="Calque 1">
    <g id="soleil-0">
      <circle class="cls-6" cx="55.28" cy="55.28" r="31"/>
      <path class="cls-7" d="m46.16,21.87h0c-2.59.71-5.26-.82-5.97-3.41l-3.36-12.29c-.71-2.6.82-5.28,3.4-5.99h0c2.59-.71,5.26.82,5.97,3.41l3.36,12.29c.71,2.6-.82,5.28-3.4,5.99Z"/>
      <path class="cls-4" d="m70.32,110.38h0c-2.59.71-5.26-.82-5.97-3.41l-3.36-12.29c-.71-2.6.82-5.28,3.4-5.99h0c2.59-.71,5.26.82,5.97,3.41l3.36,12.29c.71,2.6-.82,5.28-3.4,5.99Z"/>
      <path class="cls-3" d="m21.86,46.49h0c-.68,2.6-3.34,4.16-5.93,3.48l-12.3-3.23c-2.6-.68-4.15-3.35-3.47-5.95h0c.68-2.6,3.34-4.16,5.93-3.48l12.3,3.23c2.6.68,4.15,3.35,3.47,5.95Z"/>
      <path class="cls-2" d="m110.39,69.76h0c-.68,2.6-3.34,4.16-5.93,3.48l-12.3-3.23c-2.6-.68-4.15-3.35-3.47-5.95h0c.68-2.6,3.34-4.16,5.93-3.48l12.3,3.23c2.6.68,4.15,3.35,3.47,5.95Z"/>
      <path class="cls-1" d="m79.14,30.23h0c-1.94-1.86-2.01-4.94-.16-6.89l8.78-9.22c1.85-1.95,4.93-2.02,6.87-.16h0c1.94,1.86,2.01,4.94.16,6.89l-8.78,9.22c-1.85,1.95-4.93,2.02-6.87.16Z"/>
      <path class="cls-5" d="m15.92,96.58h0c-1.94-1.86-2.01-4.94-.16-6.89l8.78-9.22c1.85-1.95,4.93-2.02,6.87-.16h0c1.94,1.86,2.01,4.94.16,6.89l-8.78,9.22c-1.85,1.95-4.93,2.02-6.87.16Z"/>
    </g>
  </g>
</svg>