<?xml version="1.0" encoding="UTF-8"?>
<svg id="Calque_2" data-name="Calque 2" xmlns="http://www.w3.org/2000/svg" xmlns:xlink="http://www.w3.org/1999/xlink" viewBox="0 0 203.65 235.77">
  <defs>
    <style>
      .cls-1, .cls-2 {
        fill: #f3e600;
      }

      .cls-3 {
        fill: #cfcece;
      }

      .cls-4 {
        clip-path: url(#clippath);
      }

      .cls-5 {
        fill: none;
      }

      .cls-6 {
        fill: url(#Dégradé_sans_nom_215);
      }

      .cls-7 {
        fill: #fff;
        stroke: #188bb7;
        stroke-linecap: round;
        stroke-miterlimit: 10;
        stroke-width: 5px;
      }

      .cls-2 {
        opacity: .61;
      }
    </style>
    <linearGradient id="Dégradé_sans_nom_215" data-name="Dégradé sans nom 215" x1="82.36" y1="59.63" x2="203.65" y2="59.63" gradientUnits="userSpaceOnUse">
      <stop offset="0" stop-color="#c3ccd3"/>
      <stop offset=".13" stop-color="#c8cfd6"/>
      <stop offset=".62" stop-color="#d8dbdf"/>
      <stop offset="1" stop-color="#dedfe3"/>
    </linearGradient>
    <clipPath id="clippath">
      <rect class="cls-5" x="20.29" y="143.58" width="117.95" height="37.11" transform="translate(-100.78 174.55) rotate(-67.89)"/>
    </clipPath>
  </defs>
  <g id="Calque_1-2" data-name="Calque 1">
    <g id="orage_101" data-name="orage 101">
      <polygon class="cls-2" points="95.28 90.2 165.73 90.2 112.72 128.32 129.03 167.8 76.85 235.77 99.45 167.8 81.84 117.31 95.28 90.2"/>
      <g id="nuageux">
        <path id="nuage" class="cls-6" d="m203.62,76.15c-.86,19.89-17.68,35.32-37.57,34.46-8.17-.35-15.58-3.4-21.42-8.23-6.92,7.34-16.88,11.75-27.77,11.28-19.89-.86-35.32-17.68-34.46-37.57.28-6.56,2.3-12.63,5.59-17.8-2.83-5.43-4.32-11.66-4.04-18.22.86-19.89,17.68-35.32,37.57-34.46,18.98.82,33.89,16.17,34.47,34.86,4.11-1.4,8.56-2.08,13.17-1.88,19.89.86,35.32,17.69,34.46,37.57Z"/>
        <path id="nuage-2" data-name="nuage" class="cls-3" d="m121.26,70.58c-.86,19.89-17.68,35.32-37.57,34.46-8.17-.35-15.58-3.4-21.42-8.23-6.92,7.34-16.88,11.75-27.77,11.28C14.6,107.22-.83,90.4.03,70.51c.28-6.56,2.3-12.63,5.59-17.8-2.83-5.43-4.32-11.66-4.04-18.22C2.45,14.6,19.27-.83,39.16.03c18.98.82,33.89,16.17,34.47,34.86,4.11-1.4,8.56-2.08,13.17-1.88,19.89.86,35.32,17.69,34.46,37.57Z"/>
      </g>
      <g class="cls-4">
        <g>
          <g>
            <line class="cls-7" x1="127.7" y1="77.31" x2="120.32" y2="95.49"/>
            <line class="cls-7" x1="138.62" y1="88.01" x2="131.23" y2="106.19"/>
          </g>
          <g>
            <line class="cls-7" x1="58.74" y1="92.81" x2="51.36" y2="110.99"/>
            <line class="cls-7" x1="69.66" y1="103.51" x2="62.27" y2="121.69"/>
          </g>
          <g>
            <line class="cls-7" x1="85.64" y1="103.74" x2="78.25" y2="121.92"/>
            <line class="cls-7" x1="96.55" y1="114.44" x2="89.16" y2="132.62"/>
          </g>
          <g>
            <line class="cls-7" x1="112.53" y1="114.66" x2="105.14" y2="132.84"/>
            <line class="cls-7" x1="123.44" y1="125.36" x2="116.06" y2="143.54"/>
          </g>
          <g>
            <line class="cls-7" x1="43.57" y1="130.16" x2="36.18" y2="148.34"/>
            <line class="cls-7" x1="54.48" y1="140.87" x2="47.09" y2="159.04"/>
          </g>
          <g>
            <line class="cls-7" x1="70.46" y1="141.09" x2="63.07" y2="159.27"/>
            <line class="cls-7" x1="81.37" y1="151.79" x2="73.99" y2="169.97"/>
          </g>
          <g>
            <line class="cls-7" x1="97.35" y1="152.02" x2="89.97" y2="170.2"/>
            <line class="cls-7" x1="108.27" y1="162.72" x2="100.88" y2="180.9"/>
          </g>
          <g>
            <line class="cls-7" x1="124.25" y1="162.94" x2="116.86" y2="181.12"/>
            <line class="cls-7" x1="135.16" y1="173.64" x2="127.77" y2="191.82"/>
          </g>
          <g>
            <line class="cls-7" x1="28.39" y1="167.52" x2="21" y2="185.7"/>
            <line class="cls-7" x1="39.3" y1="178.22" x2="31.92" y2="196.4"/>
          </g>
          <g>
            <line class="cls-7" x1="55.28" y1="178.44" x2="47.9" y2="196.62"/>
            <line class="cls-7" x1="66.2" y1="189.15" x2="58.81" y2="207.32"/>
          </g>
          <g>
            <line class="cls-7" x1="82.18" y1="189.37" x2="74.79" y2="207.55"/>
            <line class="cls-7" x1="93.09" y1="200.07" x2="85.71" y2="218.25"/>
          </g>
          <g>
            <line class="cls-7" x1="109.07" y1="200.3" x2="101.69" y2="218.47"/>
            <line class="cls-7" x1="119.98" y1="211" x2="112.6" y2="229.18"/>
          </g>
          <g>
            <line class="cls-7" x1="40.11" y1="215.8" x2="32.72" y2="233.98"/>
            <line class="cls-7" x1="51.02" y1="226.5" x2="43.64" y2="244.68"/>
          </g>
        </g>
      </g>
      <polygon class="cls-1" points="34.63 75.8 105.09 75.8 52.07 113.93 68.38 153.41 16.2 221.38 38.81 153.41 21.2 102.92 34.63 75.8"/>
    </g>
  </g>
</svg>