<?xml version="1.0" encoding="UTF-8"?>
<svg id="Calque_2" data-name="Calque 2" xmlns="http://www.w3.org/2000/svg" xmlns:xlink="http://www.w3.org/1999/xlink" viewBox="0 0 221.69 193.21">
  <defs>
    <style>
      .cls-1 {
        fill: url(#Dégradé_sans_nom_30-5);
      }

      .cls-2 {
        fill: url(#Dégradé_sans_nom_30-4);
      }

      .cls-3 {
        fill: url(#Dégradé_sans_nom_30-3);
      }

      .cls-4 {
        fill: url(#Dégradé_sans_nom_30-2);
      }

      .cls-5 {
        fill: url(#Dégradé_sans_nom_30-6);
      }

      .cls-6 {
        fill: url(#Dégradé_sans_nom_215);
      }

      .cls-7 {
        fill: #fff;
        stroke: #188bb7;
        stroke-linecap: round;
        stroke-miterlimit: 10;
        stroke-width: 5px;
      }

      .cls-8 {
        fill: url(#Dégradé_sans_nom_215-3);
      }

      .cls-9 {
        fill: url(#Dégradé_sans_nom_215-2);
      }

      .cls-10 {
        fill: url(#Dégradé_sans_nom_40);
      }

      .cls-11 {
        fill: url(#Dégradé_sans_nom_30);
      }
    </style>
    <linearGradient id="Dégradé_sans_nom_215" data-name="Dégradé sans nom 215" x1="33.32" y1="99.53" x2="129.39" y2="99.53" gradientUnits="userSpaceOnUse">
      <stop offset="0" stop-color="#c3ccd3"/>
      <stop offset=".13" stop-color="#c8cfd6"/>
      <stop offset=".62" stop-color="#d8dbdf"/>
      <stop offset="1" stop-color="#dedfe3"/>
    </linearGradient>
    <linearGradient id="Dégradé_sans_nom_215-2" data-name="Dégradé sans nom 215" x1="103.31" y1="88.45" x2="199.38" y2="88.45" xlink:href="#Dégradé_sans_nom_215"/>
    <linearGradient id="Dégradé_sans_nom_40" data-name="Dégradé sans nom 40" x1="351.24" y1="-103.2" x2="413.25" y2="-103.2" gradientTransform="translate(-292.6 51.24) rotate(15.69)" gradientUnits="userSpaceOnUse">
      <stop offset="0" stop-color="#d3d323"/>
      <stop offset=".02" stop-color="#d2cf22"/>
      <stop offset=".32" stop-color="#d2a71b"/>
      <stop offset=".59" stop-color="#d28a16"/>
      <stop offset=".83" stop-color="#d27913"/>
      <stop offset="1" stop-color="#d27312"/>
    </linearGradient>
    <linearGradient id="Dégradé_sans_nom_30" data-name="Dégradé sans nom 30" x1="350.51" y1="-142.53" x2="366.79" y2="-142.53" gradientTransform="translate(-292.6 51.24) rotate(15.69)" gradientUnits="userSpaceOnUse">
      <stop offset="0" stop-color="#d3d323"/>
      <stop offset=".09" stop-color="#d2c420"/>
      <stop offset=".35" stop-color="#d2a11a"/>
      <stop offset=".6" stop-color="#d28715"/>
      <stop offset=".82" stop-color="#d27812"/>
      <stop offset="1" stop-color="#d27312"/>
    </linearGradient>
    <linearGradient id="Dégradé_sans_nom_30-2" data-name="Dégradé sans nom 30" x1="397.71" y1="-63.86" x2="413.99" y2="-63.86" xlink:href="#Dégradé_sans_nom_30"/>
    <linearGradient id="Dégradé_sans_nom_30-3" data-name="Dégradé sans nom 30" x1="325.27" y1="-102.43" x2="347.7" y2="-102.43" xlink:href="#Dégradé_sans_nom_30"/>
    <linearGradient id="Dégradé_sans_nom_30-4" data-name="Dégradé sans nom 30" x1="416.79" y1="-103.97" x2="439.23" y2="-103.97" xlink:href="#Dégradé_sans_nom_30"/>
    <linearGradient id="Dégradé_sans_nom_30-5" data-name="Dégradé sans nom 30" x1="395.86" y1="-143.69" x2="411.55" y2="-143.69" xlink:href="#Dégradé_sans_nom_30"/>
    <linearGradient id="Dégradé_sans_nom_30-6" data-name="Dégradé sans nom 30" x1="352.94" y1="-62.71" x2="368.63" y2="-62.71" xlink:href="#Dégradé_sans_nom_30"/>
    <linearGradient id="Dégradé_sans_nom_215-3" data-name="Dégradé sans nom 215" x1="0" y1="80.77" x2="96.07" y2="80.77" xlink:href="#Dégradé_sans_nom_215"/>
  </defs>
  <g id="Calque_1-2" data-name="Calque 1">
    <g id="brouillard_6" data-name="brouillard 6">
      <path class="cls-6" d="m129.39,104.97c0,6.18-5.01,11.18-11.18,11.18-2.58,0-4.96-.87-6.85-2.34-1.96,3.24-5.52,5.41-9.58,5.41-2.68,0-5.14-.94-7.07-2.53-1.93,1.58-4.39,2.53-7.08,2.53s-5.17-.95-7.1-2.54c-1.93,1.59-4.41,2.54-7.1,2.54-2.34,0-4.51-.72-6.3-1.94-1.79,1.23-3.96,1.94-6.29,1.94-4.01,0-7.52-2.11-9.49-5.27-1.89,1.48-4.27,2.36-6.85,2.36-6.18,0-11.18-5.01-11.18-11.18,0-4.77,2.98-8.84,7.19-10.44-.4-1.15-.62-2.39-.62-3.68,0-6.17,5.01-11.18,11.18-11.18,3.59,0,6.78,1.69,8.82,4.32,1.59-.88,3.43-1.38,5.38-1.38,2.63,0,5.05.91,6.96,2.44,1.95-3.23,5.5-5.38,9.55-5.38,3.44,0,6.51,1.55,8.56,4,1.45-.68,3.06-1.06,4.77-1.06,2.89,0,5.51,1.09,7.49,2.89,1.98-1.8,4.61-2.89,7.49-2.89,6.17,0,11.18,5.01,11.18,11.18v.27c4.68,1.33,8.12,5.64,8.12,10.75Z"/>
      <path class="cls-9" d="m199.38,93.9c0,6.18-5.01,11.18-11.18,11.18-2.58,0-4.96-.87-6.85-2.34-1.96,3.24-5.52,5.41-9.58,5.41-2.68,0-5.14-.94-7.07-2.53-1.93,1.58-4.39,2.53-7.08,2.53s-5.17-.95-7.1-2.54c-1.93,1.59-4.41,2.54-7.1,2.54-2.34,0-4.51-.72-6.3-1.94-1.79,1.23-3.96,1.94-6.29,1.94-4.01,0-7.52-2.11-9.49-5.27-1.89,1.48-4.27,2.36-6.85,2.36-6.18,0-11.18-5.01-11.18-11.18,0-4.77,2.98-8.84,7.19-10.44-.4-1.15-.62-2.39-.62-3.68,0-6.17,5.01-11.18,11.18-11.18,3.59,0,6.78,1.69,8.82,4.32,1.59-.88,3.43-1.38,5.38-1.38,2.63,0,5.05.91,6.96,2.44,1.95-3.23,5.5-5.38,9.55-5.38,3.44,0,6.51,1.55,8.56,4,1.45-.68,3.06-1.06,4.77-1.06,2.89,0,5.51,1.09,7.49,2.89,1.98-1.8,4.61-2.89,7.49-2.89,6.17,0,11.18,5.01,11.18,11.18v.27c4.68,1.33,8.12,5.64,8.12,10.75Z"/>
      <g id="soleil-0">
        <circle class="cls-10" cx="103.31" cy="55.28" r="31"/>
        <path class="cls-11" d="m94.19,21.87h0c-2.59.71-5.26-.82-5.97-3.41l-3.36-12.29c-.71-2.6.82-5.28,3.4-5.99h0c2.59-.71,5.26.82,5.97,3.41l3.36,12.29c.71,2.6-.82,5.28-3.4,5.99Z"/>
        <path class="cls-4" d="m118.35,110.38h0c-2.59.71-5.26-.82-5.97-3.41l-3.36-12.29c-.71-2.6.82-5.28,3.4-5.99h0c2.59-.71,5.26.82,5.97,3.41l3.36,12.29c.71,2.6-.82,5.28-3.4,5.99Z"/>
        <path class="cls-3" d="m69.9,46.49h0c-.68,2.6-3.34,4.16-5.93,3.48l-12.3-3.23c-2.6-.68-4.15-3.35-3.47-5.95h0c.68-2.6,3.34-4.16,5.93-3.48l12.3,3.23c2.6.68,4.15,3.35,3.47,5.95Z"/>
        <path class="cls-2" d="m158.43,69.76h0c-.68,2.6-3.34,4.16-5.93,3.48l-12.3-3.23c-2.6-.68-4.15-3.35-3.47-5.95h0c.68-2.6,3.34-4.16,5.93-3.48l12.3,3.23c2.6.68,4.15,3.35,3.47,5.95Z"/>
        <path class="cls-1" d="m127.17,30.23h0c-1.94-1.86-2.01-4.94-.16-6.89l8.78-9.22c1.85-1.95,4.93-2.02,6.87-.16h0c1.94,1.86,2.01,4.94.16,6.89l-8.78,9.22c-1.85,1.95-4.93,2.02-6.87.16Z"/>
        <path class="cls-5" d="m63.95,96.58h0c-1.94-1.86-2.01-4.94-.16-6.89l8.78-9.22c1.85-1.95,4.93-2.02,6.87-.16h0c1.94,1.86,2.01,4.94.16,6.89l-8.78,9.22c-1.85,1.95-4.93,2.02-6.87.16Z"/>
      </g>
      <path class="cls-8" d="m96.07,86.22c0,6.18-5.01,11.18-11.18,11.18-2.58,0-4.96-.87-6.85-2.34-1.96,3.24-5.52,5.41-9.58,5.41-2.68,0-5.14-.94-7.07-2.53-1.93,1.58-4.39,2.53-7.08,2.53s-5.17-.95-7.1-2.54c-1.93,1.59-4.41,2.54-7.1,2.54-2.34,0-4.51-.72-6.3-1.94-1.79,1.23-3.96,1.94-6.29,1.94-4.01,0-7.52-2.11-9.49-5.27-1.89,1.48-4.27,2.36-6.85,2.36-6.18,0-11.18-5.01-11.18-11.18,0-4.77,2.98-8.84,7.19-10.44-.4-1.15-.62-2.39-.62-3.68,0-6.17,5.01-11.18,11.18-11.18,3.59,0,6.78,1.69,8.82,4.32,1.59-.88,3.43-1.38,5.38-1.38,2.63,0,5.05.91,6.96,2.44,1.95-3.23,5.5-5.38,9.55-5.38,3.44,0,6.51,1.55,8.56,4,1.45-.68,3.06-1.06,4.77-1.06,2.89,0,5.51,1.09,7.49,2.89,1.98-1.8,4.61-2.89,7.49-2.89,6.17,0,11.18,5.01,11.18,11.18v.27c4.68,1.33,8.12,5.64,8.12,10.75Z"/>
      <g>
        <path class="cls-7" d="m11.6,141.05s19.97-10.72,46.44,0,50.81-4.77,50.81-4.77"/>
        <path class="cls-7" d="m116.36,147.96s19.97-10.72,46.44,0,50.81-4.77,50.81-4.77"/>
        <path class="cls-7" d="m36.06,163.99s19.97-10.72,46.44,0,50.81-4.77,50.81-4.77"/>
        <path class="cls-7" d="m121.93,175.46s19.97-10.72,46.44,0,50.81-4.77,50.81-4.77"/>
        <path class="cls-7" d="m38.24,186.93s19.97-10.72,46.44,0,50.81-4.77,50.81-4.77"/>
      </g>
    </g>
  </g>
</svg>