<?xml version="1.0" encoding="UTF-8"?>
<svg id="Calque_2" data-name="Calque 2" xmlns="http://www.w3.org/2000/svg" xmlns:xlink="http://www.w3.org/1999/xlink" viewBox="0 0 197.26 70.22">
  <defs>
    <style>
      .cls-1 {
        fill: url(#Dégradé_sans_nom_215-4);
      }

      .cls-2 {
        fill: url(#Dégradé_sans_nom_215);
      }

      .cls-3 {
        fill: url(#Dégradé_sans_nom_215-3);
      }

      .cls-4 {
        fill: url(#Dégradé_sans_nom_215-2);
      }
    </style>
    <linearGradient id="Dégradé_sans_nom_215" data-name="Dégradé sans nom 215" x1="31.2" y1="50.53" x2="127.27" y2="50.53" gradientUnits="userSpaceOnUse">
      <stop offset="0" stop-color="#c3ccd3"/>
      <stop offset=".13" stop-color="#c8cfd6"/>
      <stop offset=".62" stop-color="#d8dbdf"/>
      <stop offset="1" stop-color="#dedfe3"/>
    </linearGradient>
    <linearGradient id="Dégradé_sans_nom_215-2" data-name="Dégradé sans nom 215" x1="82.49" y1="19.7" x2="178.56" y2="19.7" xlink:href="#Dégradé_sans_nom_215"/>
    <linearGradient id="Dégradé_sans_nom_215-3" data-name="Dégradé sans nom 215" x1="101.19" y1="39.45" x2="197.26" y2="39.45" xlink:href="#Dégradé_sans_nom_215"/>
    <linearGradient id="Dégradé_sans_nom_215-4" data-name="Dégradé sans nom 215" x1="0" y1="19.75" x2="96.07" y2="19.75" xlink:href="#Dégradé_sans_nom_215"/>
  </defs>
  <g id="Calque_1-2" data-name="Calque 1">
    <g id="couvert">
      <path class="cls-2" d="m127.27,55.97c0,6.18-5.01,11.18-11.18,11.18-2.58,0-4.96-.87-6.85-2.34-1.96,3.24-5.52,5.41-9.58,5.41-2.68,0-5.14-.94-7.07-2.53-1.93,1.58-4.39,2.53-7.08,2.53s-5.17-.95-7.1-2.54c-1.93,1.59-4.41,2.54-7.1,2.54-2.34,0-4.51-.72-6.3-1.94-1.79,1.23-3.96,1.94-6.29,1.94-4.01,0-7.52-2.11-9.49-5.27-1.89,1.48-4.27,2.36-6.85,2.36-6.18,0-11.18-5.01-11.18-11.18,0-4.77,2.98-8.84,7.19-10.44-.4-1.15-.62-2.39-.62-3.68,0-6.17,5.01-11.18,11.18-11.18,3.59,0,6.78,1.69,8.82,4.32,1.59-.88,3.43-1.38,5.38-1.38,2.63,0,5.05.91,6.96,2.44,1.95-3.23,5.5-5.38,9.55-5.38,3.44,0,6.51,1.55,8.56,4,1.45-.68,3.06-1.06,4.77-1.06,2.89,0,5.51,1.09,7.49,2.89,1.98-1.8,4.61-2.89,7.49-2.89,6.17,0,11.18,5.01,11.18,11.18v.27c4.68,1.33,8.12,5.64,8.12,10.75Z"/>
      <path class="cls-4" d="m178.56,25.14c0,6.18-5.01,11.18-11.18,11.18-2.58,0-4.96-.87-6.85-2.34-1.96,3.24-5.52,5.41-9.58,5.41-2.68,0-5.14-.94-7.07-2.53-1.93,1.58-4.39,2.53-7.08,2.53s-5.17-.95-7.1-2.54c-1.93,1.59-4.41,2.54-7.1,2.54-2.34,0-4.51-.72-6.3-1.94-1.79,1.23-3.96,1.94-6.29,1.94-4.01,0-7.52-2.11-9.49-5.27-1.89,1.48-4.27,2.36-6.85,2.36-6.18,0-11.18-5.01-11.18-11.18,0-4.77,2.98-8.84,7.19-10.44-.4-1.15-.62-2.39-.62-3.68,0-6.17,5.01-11.18,11.18-11.18,3.59,0,6.78,1.69,8.82,4.32,1.59-.88,3.43-1.38,5.38-1.38,2.63,0,5.05.91,6.96,2.44,1.95-3.23,5.5-5.38,9.55-5.38,3.44,0,6.51,1.55,8.56,4,1.45-.68,3.06-1.06,4.77-1.06,2.89,0,5.51,1.09,7.49,2.89,1.98-1.8,4.61-2.89,7.49-2.89,6.17,0,11.18,5.01,11.18,11.18v.27c4.68,1.33,8.12,5.64,8.12,10.75Z"/>
      <path class="cls-3" d="m197.26,44.89c0,6.18-5.01,11.18-11.18,11.18-2.58,0-4.96-.87-6.85-2.34-1.96,3.24-5.52,5.41-9.58,5.41-2.68,0-5.14-.94-7.07-2.53-1.93,1.58-4.39,2.53-7.08,2.53s-5.17-.95-7.1-2.54c-1.93,1.59-4.41,2.54-7.1,2.54-2.34,0-4.51-.72-6.3-1.94-1.79,1.23-3.96,1.94-6.29,1.94-4.01,0-7.52-2.11-9.49-5.27-1.89,1.48-4.27,2.36-6.85,2.36-6.18,0-11.18-5.01-11.18-11.18,0-4.77,2.98-8.84,7.19-10.44-.4-1.15-.62-2.39-.62-3.68,0-6.17,5.01-11.18,11.18-11.18,3.59,0,6.78,1.69,8.82,4.32,1.59-.88,3.43-1.38,5.38-1.38,2.63,0,5.05.91,6.96,2.44,1.95-3.23,5.5-5.38,9.55-5.38,3.44,0,6.51,1.55,8.56,4,1.45-.68,3.06-1.06,4.77-1.06,2.89,0,5.51,1.09,7.49,2.89,1.98-1.8,4.61-2.89,7.49-2.89,6.17,0,11.18,5.01,11.18,11.18v.27c4.68,1.33,8.12,5.64,8.12,10.75Z"/>
      <path class="cls-1" d="m96.07,25.2c0,6.18-5.01,11.18-11.18,11.18-2.58,0-4.96-.87-6.85-2.34-1.96,3.24-5.52,5.41-9.58,5.41-2.68,0-5.14-.94-7.07-2.53-1.93,1.58-4.39,2.53-7.08,2.53s-5.17-.95-7.1-2.54c-1.93,1.59-4.41,2.54-7.1,2.54-2.34,0-4.51-.72-6.3-1.94-1.79,1.23-3.96,1.94-6.29,1.94-4.01,0-7.52-2.11-9.49-5.27-1.89,1.48-4.27,2.36-6.85,2.36-6.18,0-11.18-5.01-11.18-11.18,0-4.77,2.98-8.84,7.19-10.44-.4-1.15-.62-2.39-.62-3.68C6.57,5.07,11.58.06,17.75.06c3.59,0,6.78,1.69,8.82,4.32,1.59-.88,3.43-1.38,5.38-1.38,2.63,0,5.05.91,6.96,2.44C40.86,2.21,44.41.06,48.46.06c3.44,0,6.51,1.55,8.56,4,1.45-.68,3.06-1.06,4.77-1.06,2.89,0,5.51,1.09,7.49,2.89,1.98-1.8,4.61-2.89,7.49-2.89,6.17,0,11.18,5.01,11.18,11.18v.27c4.68,1.33,8.12,5.64,8.12,10.75Z"/>
    </g>
  </g>
</svg>