<?xml version="1.0" encoding="UTF-8"?>
<svg id="Calque_2" data-name="Calque 2" xmlns="http://www.w3.org/2000/svg" xmlns:xlink="http://www.w3.org/1999/xlink" viewBox="0 0 250.46 140.34">
  <defs>
    <style>
      .cls-1 {
        fill: url(#Dégradé_sans_nom_30-5);
      }

      .cls-2 {
        fill: url(#Dégradé_sans_nom_30-4);
      }

      .cls-3 {
        fill: url(#Dégradé_sans_nom_30-3);
      }

      .cls-4 {
        fill: #cfcece;
      }

      .cls-5 {
        fill: url(#Dégradé_sans_nom_30-2);
      }

      .cls-6 {
        fill: url(#Dégradé_sans_nom_30-6);
      }

      .cls-7 {
        fill: url(#Dégradé_sans_nom_215);
      }

      .cls-8 {
        fill: url(#Dégradé_sans_nom_215-2);
      }

      .cls-9 {
        fill: url(#Dégradé_sans_nom_40);
      }

      .cls-10 {
        fill: url(#Dégradé_sans_nom_30);
      }
    </style>
    <linearGradient id="Dégradé_sans_nom_40" data-name="Dégradé sans nom 40" x1="53.01" y1="-197.66" x2="115.02" y2="-197.66" gradientTransform="translate(-14.81 222.85) rotate(15.69)" gradientUnits="userSpaceOnUse">
      <stop offset="0" stop-color="#d3d323"/>
      <stop offset=".02" stop-color="#d2cf22"/>
      <stop offset=".32" stop-color="#d2a71b"/>
      <stop offset=".59" stop-color="#d28a16"/>
      <stop offset=".83" stop-color="#d27913"/>
      <stop offset="1" stop-color="#d27312"/>
    </linearGradient>
    <linearGradient id="Dégradé_sans_nom_30" data-name="Dégradé sans nom 30" x1="52.28" y1="-237" x2="68.56" y2="-237" gradientTransform="translate(-14.81 222.85) rotate(15.69)" gradientUnits="userSpaceOnUse">
      <stop offset="0" stop-color="#d3d323"/>
      <stop offset=".09" stop-color="#d2c420"/>
      <stop offset=".35" stop-color="#d2a11a"/>
      <stop offset=".6" stop-color="#d28715"/>
      <stop offset=".82" stop-color="#d27812"/>
      <stop offset="1" stop-color="#d27312"/>
    </linearGradient>
    <linearGradient id="Dégradé_sans_nom_30-2" data-name="Dégradé sans nom 30" x1="99.48" y1="-158.32" x2="115.76" y2="-158.32" xlink:href="#Dégradé_sans_nom_30"/>
    <linearGradient id="Dégradé_sans_nom_30-3" data-name="Dégradé sans nom 30" x1="27.04" y1="-196.89" x2="49.47" y2="-196.89" xlink:href="#Dégradé_sans_nom_30"/>
    <linearGradient id="Dégradé_sans_nom_30-4" data-name="Dégradé sans nom 30" x1="118.56" y1="-198.43" x2="141" y2="-198.43" xlink:href="#Dégradé_sans_nom_30"/>
    <linearGradient id="Dégradé_sans_nom_30-5" data-name="Dégradé sans nom 30" x1="97.63" y1="-238.15" x2="113.32" y2="-238.15" xlink:href="#Dégradé_sans_nom_30"/>
    <linearGradient id="Dégradé_sans_nom_30-6" data-name="Dégradé sans nom 30" x1="54.71" y1="-157.17" x2="70.4" y2="-157.17" xlink:href="#Dégradé_sans_nom_30"/>
    <linearGradient id="Dégradé_sans_nom_215" data-name="Dégradé sans nom 215" x1="129.17" y1="78.97" x2="250.46" y2="78.97" gradientUnits="userSpaceOnUse">
      <stop offset="0" stop-color="#c3ccd3"/>
      <stop offset=".13" stop-color="#c8cfd6"/>
      <stop offset=".62" stop-color="#d8dbdf"/>
      <stop offset="1" stop-color="#dedfe3"/>
    </linearGradient>
    <linearGradient id="Dégradé_sans_nom_215-2" data-name="Dégradé sans nom 215" x1="0" y1="73.4" x2="121.29" y2="73.4" xlink:href="#Dégradé_sans_nom_215"/>
  </defs>
  <g id="Calque_1-2" data-name="Calque 1">
    <g id="très_nuageux-4" data-name="très nuageux-4">
      <g id="soleil">
        <circle class="cls-9" cx="119.54" cy="55.28" r="31"/>
        <path class="cls-10" d="m110.42,21.87h0c-2.59.71-5.26-.82-5.97-3.41l-3.36-12.29c-.71-2.6.82-5.28,3.4-5.99h0c2.59-.71,5.26.82,5.97,3.41l3.36,12.29c.71,2.6-.82,5.28-3.4,5.99Z"/>
        <path class="cls-5" d="m134.58,110.38h0c-2.59.71-5.26-.82-5.97-3.41l-3.36-12.29c-.71-2.6.82-5.28,3.4-5.99h0c2.59-.71,5.26.82,5.97,3.41l3.36,12.29c.71,2.6-.82,5.28-3.4,5.99Z"/>
        <path class="cls-3" d="m86.12,46.49h0c-.68,2.6-3.34,4.16-5.93,3.48l-12.3-3.23c-2.6-.68-4.15-3.35-3.47-5.95h0c.68-2.6,3.34-4.16,5.93-3.48l12.3,3.23c2.6.68,4.15,3.35,3.47,5.95Z"/>
        <path class="cls-2" d="m174.65,69.76h0c-.68,2.6-3.34,4.16-5.93,3.48l-12.3-3.23c-2.6-.68-4.15-3.35-3.47-5.95h0c.68-2.6,3.34-4.16,5.93-3.48l12.3,3.23c2.6.68,4.15,3.35,3.47,5.95Z"/>
        <path class="cls-1" d="m143.4,30.23h0c-1.94-1.86-2.01-4.94-.16-6.89l8.78-9.22c1.85-1.95,4.93-2.02,6.87-.16h0c1.94,1.86,2.01,4.94.16,6.89l-8.78,9.22c-1.85,1.95-4.93,2.02-6.87.16Z"/>
        <path class="cls-6" d="m80.18,96.58h0c-1.94-1.86-2.01-4.94-.16-6.89l8.78-9.22c1.85-1.95,4.93-2.02,6.87-.16h0c1.94,1.86,2.01,4.94.16,6.89l-8.78,9.22c-1.85,1.95-4.93,2.02-6.87.16Z"/>
      </g>
      <path id="nuage" class="cls-7" d="m250.43,95.49c-.86,19.89-17.68,35.32-37.57,34.46-8.17-.35-15.58-3.4-21.42-8.23-6.92,7.34-16.88,11.75-27.77,11.28-19.89-.86-35.32-17.68-34.46-37.57.28-6.56,2.3-12.63,5.59-17.8-2.83-5.43-4.32-11.66-4.04-18.22.86-19.89,17.68-35.32,37.57-34.46,18.98.82,33.89,16.17,34.47,34.86,4.11-1.4,8.56-2.08,13.17-1.88,19.89.86,35.32,17.69,34.46,37.57Z"/>
      <path id="nuage-2" data-name="nuage" class="cls-8" d="m121.26,89.93c-.86,19.89-17.68,35.32-37.57,34.46-8.17-.35-15.58-3.4-21.42-8.23-6.92,7.34-16.88,11.75-27.77,11.28C14.6,126.57-.83,109.75.03,89.86c.28-6.56,2.3-12.63,5.59-17.8-2.83-5.43-4.32-11.66-4.04-18.22.86-19.89,17.68-35.32,37.57-34.46,18.98.82,33.89,16.17,34.47,34.86,4.11-1.4,8.56-2.08,13.17-1.88,19.89.86,35.32,17.69,34.46,37.57Z"/>
      <path id="nuage-3" data-name="nuage" class="cls-4" d="m165.88,102.81c-.86,19.89-17.68,35.32-37.57,34.46-8.17-.35-15.58-3.4-21.42-8.23-6.92,7.34-16.88,11.75-27.77,11.28-19.89-.86-35.32-17.68-34.46-37.57.28-6.56,2.3-12.63,5.59-17.8-2.83-5.43-4.32-11.66-4.04-18.22.86-19.89,17.68-35.32,37.57-34.46,18.98.82,33.89,16.17,34.47,34.86,4.11-1.4,8.56-2.08,13.17-1.88,19.89.86,35.32,17.69,34.46,37.57Z"/>
    </g>
  </g>
</svg>