<?xml version="1.0" encoding="UTF-8"?>
<svg id="Calque_2" data-name="Calque 2" xmlns="http://www.w3.org/2000/svg" viewBox="0 0 255.27 253.25">
  <defs>
    <style>
      .cls-1 {
        fill: #c7c6c6;
      }
    </style>
  </defs>
  <g id="Calque_1-2" data-name="Calque 1">
    <g>
      <path class="cls-1" d="m183.35,14.5l-47.46,94.64c-1.93-.97-4.06-1.61-6.32-1.84L140.92,0s25.78.54,42.43,14.5Z"/>
      <path class="cls-1" d="m111.28,117.13c-.99,1.88-1.65,3.96-1.92,6.16L0,109.38s.53-25.77,14.5-42.42l96.78,50.17Z"/>
      <path class="cls-1" d="m125.31,143.89l-13.91,109.36s-25.77-.54-42.42-14.5l50.17-96.78c1.88.98,3.96,1.65,6.16,1.92Z"/>
      <path class="cls-1" d="m255.27,141.85s-.54,25.77-14.5,42.42l-96.78-50.18c.99-1.88,1.65-3.95,1.92-6.15l109.36,13.91Z"/>
      <path class="cls-1" d="m146.06,125.61c0,.79-.05,1.57-.15,2.33-.27,2.2-.93,4.27-1.92,6.15-3.06,5.91-9.24,9.95-16.36,9.95-.79,0-1.56-.05-2.32-.15-2.2-.27-4.28-.94-6.16-1.92-5.91-3.07-9.94-9.24-9.94-16.36,0-.79.05-1.56.15-2.32.27-2.2.93-4.28,1.92-6.16,3.06-5.9,9.24-9.94,16.35-9.94.66,0,1.31.03,1.94.11,2.26.23,4.39.87,6.32,1.84,6.03,3.03,10.17,9.27,10.17,16.47Z"/>
    </g>
  </g>
</svg>